<svg xmlns="http://www.w3.org/2000/svg" width="771" height="211" viewBox="0 0 771 211" version="1.1"><path d="M 91.763 36.082 C 85.307 37.604, 44.078 61.735, 38.857 67.047 C 32.562 73.453, 32 76.673, 32 106.368 C 32 143.510, 30.992 141.844, 65.275 161.357 C 97.961 179.961, 95 179.962, 127.777 161.330 C 162.462 141.613, 161.310 143.639, 160.823 103.245 C 160.381 66.631, 162.323 69.803, 128.408 50.299 C 109.379 39.356, 99.278 34.627, 96 35.125 C 95.725 35.167, 93.818 35.597, 91.763 36.082 M 222.607 65.582 C 221.038 69.671, 221.963 157.772, 223.582 158.393 C 225.634 159.181, 238.366 159.181, 240.418 158.393 C 241.763 157.877, 242 155.551, 242 142.893 L 242 128 250.828 128 L 259.656 128 266.453 142.250 C 274.725 159.592, 274.043 159, 285.723 159 C 297.672 159, 297.577 159.606, 288.517 141.167 C 279.894 123.617, 280.004 124.113, 284.077 121.101 C 302.099 107.777, 296.649 71.725, 275.672 65.495 C 268.065 63.236, 223.479 63.309, 222.607 65.582 M 388.472 65.212 C 388.201 65.921, 388.096 87.200, 388.239 112.500 L 388.500 158.500 395.978 158.798 C 401.790 159.030, 403.705 158.756, 404.576 157.566 C 405.567 156.209, 406.199 156.281, 410.098 158.192 C 420.216 163.152, 436.707 160.170, 444.862 151.907 C 472.115 124.293, 447.055 74.132, 412.157 86.445 L 408.063 87.889 407.781 76.195 L 407.500 64.500 398.233 64.212 C 391.382 64, 388.837 64.260, 388.472 65.212 M 242 95.645 L 242 109.291 254.515 108.750 C 285.126 107.429, 283.716 82, 253.032 82 L 242 82 242 95.645 M 328.324 86.383 C 289.692 98.984, 298.966 160.342, 339.500 160.324 C 387.490 160.303, 389.446 86.925, 341.500 85.322 C 335.821 85.132, 330.959 85.524, 328.324 86.383 M 467.702 87.632 C 465.764 89.569, 466.971 135.869, 469.130 142.446 C 474.562 158.993, 493.332 165.836, 509.879 157.302 L 515.794 154.251 516.894 156.668 C 517.940 158.962, 518.389 159.069, 525.748 158.792 L 533.500 158.500 533.500 123 L 533.500 87.500 524 87.500 L 514.500 87.500 514 110 C 513.681 124.342, 513.080 133.225, 512.342 134.500 C 506.660 144.311, 493.115 144.025, 488.682 134 C 488.047 132.563, 487.348 122.142, 487.039 109.500 L 486.500 87.500 477.452 87.215 C 472.475 87.058, 468.087 87.246, 467.702 87.632 M 543 88.562 C 543 89.421, 548.166 97.352, 554.481 106.187 L 565.961 122.250 560.270 130.375 C 557.140 134.844, 551.717 142.479, 548.218 147.341 C 540.110 158.609, 540.263 159, 552.782 159 C 564.161 159, 563.844 159.206, 572.433 146.250 C 578.197 137.555, 576.718 137.486, 583.032 146.750 C 591.779 159.584, 590.871 159, 602.067 159 C 614.942 159, 614.943 159.167, 601.937 140.862 C 595.933 132.413, 590.571 124.750, 590.021 123.834 C 589.221 122.504, 591.342 118.907, 600.566 105.951 C 614.245 86.736, 614.235 86.995, 601.281 87.015 C 589.677 87.033, 590.676 86.484, 584.033 96.500 C 581.115 100.900, 578.410 104.856, 578.023 105.291 C 577.635 105.726, 574.487 101.788, 571.027 96.541 L 564.736 87 553.868 87 C 544.682 87, 543 87.242, 543 88.562 M 412.881 104.503 C 404.335 109.148, 403.532 133.553, 411.713 139.989 C 417.979 144.918, 429.404 141.929, 433.045 134.408 C 441.443 117.060, 427.588 96.511, 412.881 104.503 M 332.304 105.956 C 321.461 112.568, 322.423 135.203, 333.761 140.218 C 345.606 145.458, 355.219 137.810, 355.350 123.041 C 355.483 108.051, 343.472 99.147, 332.304 105.956" stroke="none" fill="#9cace4" fill-rule="evenodd"/><path d="M 83.500 3.812 C 59.905 12.053, 10.376 45.428, 4.735 56.887 L 1.500 63.458 1.500 105.979 L 1.500 148.500 4.749 155.142 C 12.804 171.606, 76.560 209.883, 96.068 209.967 C 116.203 210.054, 179.872 172.161, 188.277 155.090 L 191.500 148.542 191.500 106 L 191.500 63.458 188.265 56.887 C 182.819 45.824, 178.346 42.338, 144.828 23.029 C 106.217 0.787, 98.808 -1.535, 83.500 3.812 M 86.448 20.885 C 76.523 25.392, 29.100 53.637, 25.255 57.329 C 17.651 64.633, 17.500 65.588, 17.500 106.500 C 17.500 155.113, 14.408 149.792, 57 174.460 C 99.381 199.006, 93.619 199.006, 136 174.460 C 178.592 149.792, 175.500 155.113, 175.500 106.500 C 175.500 57.106, 178.049 61.649, 137.052 37.989 C 100.994 17.179, 97.332 15.941, 86.448 20.885 M 664 70.383 C 664 80.154, 663.619 79.854, 675 79.038 L 682.500 78.500 682.790 70.250 L 683.081 62 673.540 62 L 664 62 664 70.383 M 720.870 86.565 C 689.865 96.112, 687.894 144.075, 717.941 157.831 C 747.375 171.306, 777.789 140.408, 766.679 108.318 C 760.493 90.453, 739.941 80.693, 720.870 86.565 M 664.470 88.217 C 664.197 88.929, 664.092 105.035, 664.237 124.006 L 664.500 158.500 673.500 158.500 L 682.500 158.500 682.500 123 L 682.500 87.500 673.734 87.211 C 667.265 86.997, 664.837 87.261, 664.470 88.217 M 724.756 105.569 C 715.219 110.743, 714.986 132.421, 724.392 139.443 C 734.942 147.320, 747.500 138.113, 747.500 122.500 C 747.500 107.553, 736.370 99.268, 724.756 105.569 M 625.202 140.256 C 624.461 141.149, 624.329 144.364, 624.799 150.043 L 625.500 158.500 634.500 158.500 L 643.500 158.500 643.500 149 L 643.500 139.500 634.903 139.213 C 628.682 139.006, 626.001 139.294, 625.202 140.256" stroke="none" fill="#5c74eb" fill-rule="evenodd"/></svg>