<svg width="14" height="14" viewBox="0 0 14 14" fill="none" xmlns="http://www.w3.org/2000/svg">
    <path d="M7.678 0.626022C7.49331 0.455669 7.25126 0.361084 7 0.361084C6.74874 0.361084 6.50669 0.455669 6.322 0.626022L0.822 5.70302C0.720483 5.79666 0.639462 5.91031 0.584043 6.03681C0.528624 6.16331 0.500009 6.29992 0.5 6.43802V13C0.5 13.2652 0.605357 13.5196 0.792893 13.7071C0.98043 13.8947 1.23478 14 1.5 14H5V9.00002H9V14H12.5C12.7652 14 13.0196 13.8947 13.2071 13.7071C13.3946 13.5196 13.5 13.2652 13.5 13V6.43802C13.5 6.29992 13.4714 6.16331 13.416 6.03681C13.3605 5.91031 13.2795 5.79666 13.178 5.70302L7.678 0.626022Z" fill="white"/>
</svg>
