<svg width="36" height="40" viewBox="0 0 36 40" fill="fffff" xmlns="http://www.w3.org/2000/svg">
    <path fill-rule="evenodd" clip-rule="evenodd" d="M20.5251 0.696094C18.9688 -0.232031 17.0313 -0.232031 15.4751 0.696094L3.02507 8.09609C1.45007 9.04922 0.490693 10.7586 0.500068 12.5992V27.3992C0.500068 29.2555 1.46257 30.9742 3.02507 31.9023L15.4751 39.3023C17.0313 40.2305 18.9688 40.2305 20.5251 39.3023L32.9751 31.9023C34.5501 30.9492 35.5094 29.2398 35.5001 27.3992V12.5992C35.5001 10.743 34.5376 9.02422 32.9751 8.09609L20.5251 0.696094ZM14.2501 13.7492C12.8688 13.7492 11.7501 14.868 11.7501 16.2492V23.7492C11.7501 25.1305 12.8688 26.2492 14.2501 26.2492H21.7501C23.1313 26.2492 24.2501 25.1305 24.2501 23.7492V16.2492C24.2501 14.868 23.1313 13.7492 21.7501 13.7492H14.2501Z" fill="#FFFF"/>
</svg>
