<svg width="16" height="16" viewBox="0 0 16 16" fill="none" xmlns="http://www.w3.org/2000/svg">
    <g clip-path="url(#clip0_438_2)">
        <mask id="mask0_438_2" style="mask-type:luminance" maskUnits="userSpaceOnUse" x="0" y="0" width="16" height="16">
            <path d="M0 0H16V16H0V0Z" fill="white"/>
        </mask>
        <g mask="url(#mask0_438_2)">
            <path fill-rule="evenodd" clip-rule="evenodd" d="M9.01003 0.27861C8.70468 0.0962751 8.35567 0 8.00003 0C7.64438 0 7.29537 0.0962751 6.99003 0.27861L2.01003 3.23861C1.70027 3.4258 1.44437 3.69014 1.26734 4.00582C1.09031 4.32149 0.998202 4.67769 1.00003 5.03961V10.9596C1.00003 11.7026 1.38503 12.3896 2.01003 12.7606L6.99003 15.7206C7.29537 15.9029 7.64438 15.9992 8.00003 15.9992C8.35567 15.9992 8.70468 15.9029 9.01003 15.7206L13.99 12.7606C14.2998 12.5734 14.5557 12.3091 14.7327 11.9934C14.9097 11.6777 15.0018 11.3215 15 10.9596V5.03961C15 4.29661 14.615 3.60961 13.99 3.23861L9.01003 0.27861ZM6.50003 5.49961C6.23481 5.49961 5.98046 5.60497 5.79292 5.7925C5.60538 5.98004 5.50003 6.23439 5.50003 6.49961V9.49961C5.50003 9.76483 5.60538 10.0192 5.79292 10.2067C5.98046 10.3943 6.23481 10.4996 6.50003 10.4996H9.50003C9.76524 10.4996 10.0196 10.3943 10.2071 10.2067C10.3947 10.0192 10.5 9.76483 10.5 9.49961V6.49961C10.5 6.23439 10.3947 5.98004 10.2071 5.7925C10.0196 5.60497 9.76524 5.49961 9.50003 5.49961H6.50003Z" fill="white"/>
        </g>
    </g>
    <defs>
        <clipPath id="clip0_438_2">
            <rect width="16" height="16" fill="white"/>
        </clipPath>
    </defs>
</svg>
