<svg style="margin-top: 2px; display: inline-block; position: relative;" xmlns="http://www.w3.org/2000/svg" xmlns:xlink="http://www.w3.org/1999/xlink" width="30px" height="30px" viewBox="0 0 50 50" version="1.1">
    <g id="surface1" style="display: inline-block; position: relative;">
        <path style=" stroke:none;fill-rule:evenodd;fill:rgb(255,255,255);fill-opacity:1;" d="M 28.15625 0.871094 C 26.210938 -0.289062 23.789062 -0.289062 21.84375 0.871094 L 6.28125 10.121094 C 4.3125 11.3125 3.113281 13.449219 3.125 15.75 L 3.125 34.25 C 3.125 36.570312 4.328125 38.71875 6.28125 39.878906 L 21.84375 49.128906 C 23.789062 50.289062 26.210938 50.289062 28.15625 49.128906 L 43.71875 39.878906 C 45.6875 38.6875 46.886719 36.550781 46.875 34.25 L 46.875 15.75 C 46.875 13.429688 45.671875 11.28125 43.71875 10.121094 Z M 20.3125 17.1875 C 18.585938 17.1875 17.1875 18.585938 17.1875 20.3125 L 17.1875 29.6875 C 17.1875 31.414062 18.585938 32.8125 20.3125 32.8125 L 29.6875 32.8125 C 31.414062 32.8125 32.8125 31.414062 32.8125 29.6875 L 32.8125 20.3125 C 32.8125 18.585938 31.414062 17.1875 29.6875 17.1875 Z M 20.3125 17.1875 "></path>
    </g>
</svg>