<svg xmlns="http://www.w3.org/2000/svg" width="16" height="16" fill="none" class="flex-shrink-0"><g clip-path="url(#robux_svg__a)"><path fill="#DADAEA" fill-rule="evenodd" d="M9.01.279a1.97 1.97 0 0 0-2.02 0l-4.98 2.96A2.092 2.092 0 0 0 1 5.04v5.92c0 .743.385 1.43 1.01 1.801l4.98 2.96a1.97 1.97 0 0 0 2.02 0l4.98-2.96A2.092 2.092 0 0 0 15 10.96V5.04c0-.743-.385-1.43-1.01-1.801L9.01.279ZM6.5 5.5a1 1 0 0 0-1 1v3a1 1 0 0 0 1 1h3a1 1 0 0 0 1-1v-3a1 1 0 0 0-1-1z" clip-rule="evenodd"></path></g><defs><clipPath id="robux_svg__a"><path fill="#fff" d="M0 0h16v16H0z"></path></clipPath></defs></svg>