<svg width="16" height="15" viewBox="0 0 16 15" fill="none" xmlns="http://www.w3.org/2000/svg">
    <path d="M7.53171 0.766911C7.69279 0.331602 8.30849 0.331603 8.46957 0.766912L10.0815 5.12331C10.1322 5.26017 10.2401 5.36808 10.3769 5.41872L14.7333 7.03073C15.1687 7.19181 15.1687 7.80751 14.7333 7.96859L10.3769 9.5806C10.2401 9.63124 10.1322 9.73915 10.0815 9.87601L8.46957 14.2324C8.30849 14.6678 7.69279 14.6678 7.53171 14.2324L5.9197 9.87601C5.86906 9.73915 5.76115 9.63124 5.62429 9.5806L1.26789 7.96859C0.832579 7.80751 0.83258 7.19181 1.26789 7.03073L5.62429 5.41872C5.76115 5.36808 5.86906 5.26017 5.9197 5.12331L7.53171 0.766911Z" fill="#FFFf"/>
</svg>
