<svg width="16" height="15" viewBox="0 0 16 15" fill="none" xmlns="http://www.w3.org/2000/svg">
    <path d="M7.53107 0.767252C7.69215 0.331943 8.30785 0.331944 8.46893 0.767253L10.0809 5.12365C10.1316 5.26051 10.2395 5.36842 10.3763 5.41906L14.7327 7.03107C15.1681 7.19215 15.1681 7.80785 14.7327 7.96893L10.3763 9.58094C10.2395 9.63158 10.1316 9.73949 10.0809 9.87635L8.46893 14.2327C8.30785 14.6681 7.69215 14.6681 7.53107 14.2327L5.91906 9.87635C5.86842 9.73949 5.76051 9.63158 5.62365 9.58094L1.26725 7.96893C0.831943 7.80785 0.831944 7.19215 1.26725 7.03107L5.62365 5.41906C5.76051 5.36842 5.86842 5.26051 5.91906 5.12365L7.53107 0.767252Z" fill="#9aa7b9"></path>
</svg>