<svg xmlns="http://www.w3.org/2000/svg" width="807" height="876" viewBox="0 0 807 876" version="1.1"><path d="M 390.168 145.086 C 374.915 147.433, 366.881 151.077, 328.875 172.890 C 201.062 246.244, 176.741 260.452, 170.210 265.579 C 158.013 275.153, 147.283 290.040, 141.495 305.418 C 135.415 321.570, 135.692 315.996, 135.273 430.500 C 134.808 557.188, 134.759 556.450, 145.018 577.638 C 152.781 593.672, 164.189 606.618, 178.510 615.645 C 190.428 623.157, 359.178 719.663, 365.567 722.620 C 378.247 728.490, 387.669 730.421, 403.500 730.395 C 418.915 730.370, 428.642 728.451, 440.408 723.113 C 445.320 720.884, 595.002 635.380, 623.886 618.303 C 645.916 605.279, 661.353 585.497, 668.213 561.500 L 670.500 553.500 670.500 437.500 L 670.500 321.500 668.199 313.500 C 661.947 291.769, 648.104 272.497, 630 260.320 C 620.307 253.800, 448.050 155.390, 440.908 152.292 C 436.733 150.481, 429.817 148.104, 425.540 147.010 C 416.338 144.657, 399.063 143.717, 390.168 145.086" stroke="none" fill="#9cace4" fill-rule="evenodd"/><path d="M 384 3.051 C 364.661 5.454, 343.770 11.587, 327.979 19.499 C 322.766 22.111, 300.500 34.614, 278.500 47.283 C 116.486 140.585, 81.562 160.891, 74.561 165.862 C 65.042 172.622, 48.903 187.838, 41.004 197.500 C 23.122 219.371, 10.703 246.011, 4.796 275.166 L 2.500 286.500 2.500 439 C 2.500 582.408, 2.608 592.037, 4.317 600.500 C 14.151 649.215, 40.068 688.777, 78.996 714.499 C 94.204 724.547, 317.380 853.807, 329.500 859.586 C 342.960 866.004, 355.972 870.343, 369.704 872.993 C 384.546 875.858, 422.295 875.898, 436.907 873.066 C 449.904 870.546, 468.435 864.309, 479.605 858.695 C 494.262 851.327, 723.854 718.255, 732.445 712.148 C 736.815 709.042, 745.088 702, 750.830 696.500 C 774.388 673.935, 789.715 648.613, 798.344 618 C 804.719 595.382, 804.305 606.541, 804.725 446 C 804.997 341.923, 804.783 296.604, 803.986 289.500 C 798.166 237.661, 770.670 191.729, 728.408 163.246 C 720.733 158.073, 491.142 25.604, 481.027 20.512 C 465.984 12.940, 450.167 7.780, 431.500 4.357 C 421.641 2.549, 394.129 1.793, 384 3.051 M 388.500 71.639 C 380.395 72.922, 368.317 76.265, 360.828 79.298 C 351.446 83.098, 125.146 213.589, 115 221.049 C 106.826 227.060, 94.589 239.659, 89.310 247.500 C 80.150 261.104, 73.373 277.987, 71.046 293 C 70.193 298.509, 69.966 338.327, 70.192 443 L 70.500 585.500 73.250 595.477 C 80.196 620.679, 97.252 644.973, 117.676 658.755 C 127.029 665.067, 341.452 788.977, 353 794.743 C 383.151 809.799, 417.504 810.864, 447.980 797.688 C 452.300 795.820, 466.334 788.203, 479.167 780.762 C 492 773.320, 543.900 743.290, 594.500 714.029 C 645.100 684.768, 689.775 658.333, 693.778 655.286 C 712.889 640.737, 726.851 619.430, 733.826 594.170 L 736.496 584.500 736.790 444 C 736.995 346.092, 736.751 300.923, 735.985 295 C 733.829 278.326, 725.542 258.227, 714.906 243.876 C 708.960 235.852, 697.366 224.677, 689.377 219.269 C 679.487 212.574, 460.106 85.946, 450.500 81.388 C 436.063 74.537, 424.293 71.891, 406.500 71.497 C 398.250 71.314, 390.150 71.378, 388.500 71.639" stroke="none" fill="#5c74eb" fill-rule="evenodd"/></svg>